<svg width="40" height="40" viewBox="0 0 40 40" fill="hsba(234, 39%, 30%, 1)" xmlns="http://www.w3.org/2000/svg">
<path d="M29.5 3.75V4.25H30H32.1875C32.7746 4.25 33.25 4.72536 33.25 5.3125V15C33.25 15.5871 32.7746 16.0625 32.1875 16.0625H18.4766H17.9766V16.5625V20.9375V21.4375H18.4766H20.0078V30.1421L20.0068 30.1483L19.9979 30.2015L20.0006 30.2554C20.0046 30.3352 20.0078 30.4011 20.0078 30.4688C20.0078 32.0051 18.7629 33.25 17.2266 33.25C15.6902 33.25 14.4453 32.0051 14.4453 30.4688C14.4453 30.4049 14.4485 30.3348 14.4525 30.2554L14.4552 30.2015L14.4463 30.1483C14.4459 30.1458 14.4456 30.1437 14.4453 30.142V21.4375H15.9766H16.4766V20.9375V15.625C16.4766 15.0379 16.9519 14.5625 17.5391 14.5625H31.25H31.75V14.0625V6.25V5.75H31.25H30H29.5V6.25V11.5625C29.5 11.8059 29.3059 12 29.0625 12H5.9375C5.69411 12 5.5 11.8059 5.5 11.5625V0.9375C5.5 0.694111 5.69411 0.5 5.9375 0.5H29.0625C29.3059 0.5 29.5 0.694111 29.5 0.9375V3.75ZM27.5 10.5H28V10V2.5V2H27.5H7.5H7V2.5V10V10.5H7.5H27.5ZM16.4453 22.9375H15.9453V23.4375V30.4688C15.9453 31.1746 16.5207 31.75 17.2266 31.75C17.9324 31.75 18.5078 31.1746 18.5078 30.4688V23.4375V22.9375H18.0078H16.4453Z" stroke="#C9E7FA"/>
</svg>
