<svg width="40" height="40" viewBox="0 0 40 40" fill="none" xmlns="http://www.w3.org/2000/svg">
<path d="M34.4024 15.7385L34.4021 15.7392L33.5304 17.7292L33.323 18.2026L33.803 18.3942L35.8983 19.2304L32.9365 26.635L30.5656 25.6872L30.1168 25.5078L29.9223 25.9503L29.4023 27.1337L29.4022 27.1338C29.2785 27.4156 29.0485 27.6371 28.7622 27.7501C28.476 27.8631 28.1567 27.8584 27.8739 27.737L27.8736 27.7369L19.1986 24.0202L18.7278 23.8185L18.5375 24.2941L16.5008 29.3841L16.5005 29.385C16.0696 30.4677 15.0389 31.1665 13.8717 31.1665H6.66671H6.16671V31.6665V36.1665H3.83337V23.8332H6.16671V28.3332V28.8332H6.66671H13.8717H14.2102L14.3359 28.5189L16.4026 23.3522L16.5838 22.8992L16.1354 22.7069L6.07209 18.3936C5.38196 18.0977 4.83742 17.54 4.55799 16.843C4.27861 16.1462 4.28706 15.367 4.58147 14.6763C4.58153 14.6762 4.58158 14.6761 4.58163 14.676L8.26457 6.0869C8.26457 6.08689 8.26457 6.08688 8.26458 6.08687C8.8638 4.68966 10.6091 3.99326 12.0119 4.61078L33.8036 14.2041L33.8044 14.2045C33.9445 14.2658 34.071 14.3542 34.1769 14.4645C34.2828 14.5749 34.3659 14.705 34.4214 14.8475C34.477 14.99 34.5039 15.142 34.5006 15.2949C34.4973 15.4478 34.464 15.5985 34.4024 15.7385ZM27.2731 24.9427L27.7286 25.138L27.9279 24.6842L31.5962 16.3292L31.797 15.8718L31.3398 15.6705L11.0698 6.74721L10.6077 6.54377L10.4088 7.00787L6.7288 15.5945L6.53184 16.0541L6.99142 16.2511L27.2731 24.9427Z" stroke="#C9E7FA"/>
</svg>
