<svg width="30" height="30" viewBox="0 0 30 30" fill="none" xmlns="http://www.w3.org/2000/svg">
<path d="M0.857926 0.857835C0.467401 1.24836 0.467401 1.88152 0.857925 2.27205L13.5859 15L0.857835 27.728C0.46731 28.1186 0.46731 28.7517 0.857835 29.1423C1.24836 29.5328 1.88152 29.5328 2.27205 29.1423L15.0001 16.4142L27.728 29.1421C28.1185 29.5326 28.7517 29.5326 29.1422 29.1421C29.5327 28.7516 29.5327 28.1184 29.1422 27.7279L16.4143 15L29.1421 2.2722C29.5326 1.88168 29.5326 1.24851 29.1421 0.857986C28.7516 0.467461 28.1184 0.467461 27.7279 0.857985L15.0001 13.5858L2.27214 0.857835C1.88162 0.46731 1.24845 0.46731 0.857926 0.857835Z" fill="#2E314C"/>
</svg>
