<svg width="38" height="38" viewBox="0 0 38 38" fill="none" xmlns="http://www.w3.org/2000/svg">
<path d="M8 9.05263C8 8.74742 8.24624 8.5 8.55 8.5H29.45C29.7538 8.5 30 8.74742 30 9.05263C30 9.35784 29.7538 9.60526 29.45 9.60526H8.55C8.24624 9.60526 8 9.35784 8 9.05263Z" fill="#2E314C"/>
<path d="M10.2 19C10.2 18.6948 10.4462 18.4474 10.75 18.4474H19H27.25C27.5538 18.4474 27.8 18.6948 27.8 19C27.8 19.3052 27.5538 19.5526 27.25 19.5526H10.75C10.4462 19.5526 10.2 19.3052 10.2 19Z" fill="#2E314C"/>
<path d="M8 28.9474C8 28.6422 8.24624 28.3947 8.55 28.3947H29.45C29.7538 28.3947 30 28.6422 30 28.9474C30 29.2526 29.7538 29.5 29.45 29.5H8.55C8.24624 29.5 8 29.2526 8 28.9474Z" fill="#2E314C"/>
<rect x="0.5" y="1" width="37" height="36" rx="3.5" stroke="#2E314C"/>
</svg>
