<svg width="40" height="40" viewBox="0 0 40 40" fill="none" xmlns="http://www.w3.org/2000/svg">
<path d="M18.6198 21.7763L19.0612 21.5416L18.8265 21.1002L9.88315 4.27849L9.88314 4.27847C9.86259 4.23982 9.84985 4.19749 9.84565 4.15391C9.84145 4.11033 9.84588 4.06636 9.85868 4.02449C9.88454 3.93993 9.94292 3.86911 10.021 3.8276C10.0991 3.78609 10.1904 3.77729 10.275 3.80314C10.3168 3.81594 10.3558 3.83686 10.3896 3.86471C10.4233 3.89256 10.4513 3.92679 10.4719 3.96544C10.4719 3.96544 10.4719 3.96544 10.4719 3.96544L19.416 20.7871L19.6508 21.2288L20.0924 20.9938L21.3605 20.3189C21.3606 20.3188 21.3607 20.3188 21.3607 20.3188C21.6893 20.1441 22.049 20.0359 22.4193 20.0003C22.7897 19.9647 23.1636 20.0024 23.5194 20.1112C23.8753 20.2201 24.2062 20.398 24.4933 20.6348C24.7804 20.8715 25.018 21.1625 25.1926 21.4912L25.1927 21.4912L25.7327 22.5071L25.7457 22.5316L25.7613 22.5545L31.1711 30.4715L24.8333 33.8406L22.5412 29.31L22.3154 28.8638L21.8692 29.0896L20.3825 29.8421L19.9365 30.0678L20.1622 30.5139L22.4785 35.0933L20.2827 36.2604L16.743 27.3478L16.7328 27.3222L16.7199 27.2978L16.1807 26.2828L16.1806 26.2826C16.0059 25.9541 15.8976 25.5943 15.862 25.2239C15.8263 24.8535 15.8639 24.4798 15.9727 24.1239C16.0815 23.7681 16.2593 23.4371 16.496 23.15C16.7327 22.8629 17.0236 22.6252 17.3522 22.4505L17.3523 22.4505L18.6198 21.7763ZM25.143 22.8182L24.6032 21.8043C24.4696 21.5531 24.2878 21.3306 24.0683 21.1496L23.7502 21.5354L24.0683 21.1496C23.8487 20.9686 23.5956 20.8326 23.3235 20.7494C23.0514 20.6662 22.7656 20.6374 22.4823 20.6647C22.1991 20.692 21.924 20.7748 21.6727 20.9084L17.6645 23.0392L17.8992 23.4807L17.6645 23.0392C17.4132 23.1728 17.1907 23.3546 17.0097 23.5741L17.3836 23.8824L17.0097 23.5741C16.8287 23.7937 16.6927 24.0467 16.6095 24.3189C16.5263 24.591 16.4976 24.8768 16.5248 25.1601C16.5521 25.4433 16.6349 25.7184 16.7685 25.9696L17.3076 26.9844L17.5423 27.4262L17.9839 27.1913L24.9364 23.4947L25.3781 23.2598L25.143 22.8182Z" stroke="#C9E7FA"/>
<path d="M14.4224 29.7866L14.4225 29.7866C14.4791 29.8545 14.5063 29.9421 14.4983 30.0301C14.4948 30.0692 14.4844 30.1069 14.4681 30.1417H14.4475L14.3354 30.2912C14.2241 30.3774 14.1099 30.4597 13.993 30.5379C13.6553 30.7615 13.3021 30.9606 12.9361 31.1339L12.9361 31.1339L12.9338 31.135C11.7576 31.6993 10.4705 31.9948 9.16596 32C9.07782 31.9998 8.99334 31.9647 8.93101 31.9024C8.86849 31.8399 8.83337 31.7551 8.83337 31.6667C8.83337 31.5783 8.86849 31.4935 8.93101 31.431C8.99352 31.3684 9.0783 31.3333 9.16671 31.3333L9.1691 31.3333C10.3741 31.3276 11.5627 31.0538 12.6489 30.532C13.0703 30.3318 13.3992 30.132 13.622 29.9838L13.6223 29.9836C13.7078 29.9266 13.7916 29.8673 13.8737 29.8056L13.8737 29.8056L13.8764 29.8035L13.9245 29.7669L13.9291 29.7635L14.0063 29.7074C14.064 29.6758 14.1302 29.6618 14.1967 29.6679C14.2847 29.676 14.3659 29.7186 14.4224 29.7866ZM16.1107 33.9816L16.1108 33.9817C16.1351 34.0181 16.152 34.0589 16.1605 34.1019C16.169 34.1448 16.169 34.189 16.1604 34.232C16.1518 34.2749 16.1349 34.3157 16.1105 34.3521L16.1105 34.3521C16.0871 34.3871 16.0573 34.4173 16.0227 34.4411L16.0183 34.4438L16.0115 34.4482L15.987 34.4639C15.8498 34.5512 15.7106 34.6352 15.5694 34.7159L15.5691 34.7161C15.2879 34.8771 14.8876 35.0913 14.4066 35.3046L14.406 35.3048C13.451 35.7297 12.1502 36.1667 10.8334 36.1667C10.745 36.1667 10.6602 36.1315 10.5977 36.069C10.5352 36.0065 10.5 35.9217 10.5 35.8333C10.5 35.7449 10.5352 35.6601 10.5977 35.5976C10.6602 35.5351 10.745 35.5 10.8334 35.5C12.0159 35.5 13.2169 35.1035 14.1356 34.6952L14.1363 34.6949C14.6188 34.4796 15.0871 34.2337 15.5382 33.9587C15.5657 33.9424 15.5928 33.9255 15.6194 33.9079L15.6265 33.9037L15.6793 33.872L15.6815 33.8698C15.709 33.8558 15.7383 33.8456 15.7686 33.8395C15.8116 33.831 15.8558 33.8311 15.8987 33.8396C15.9416 33.8482 15.9824 33.8652 16.0188 33.8895L16.297 33.474L16.0188 33.8895C16.0552 33.9139 16.0864 33.9452 16.1107 33.9816Z" stroke="#C9E7FA"/>
</svg>
