<svg width="40" height="40" viewBox="0 0 40 40" fill="none" xmlns="http://www.w3.org/2000/svg">
<path d="M36.6667 18.3333V6C36.6667 5.73478 36.5614 5.48043 36.3738 5.29289C36.1863 5.10536 35.9319 5 35.6667 5H4.33337C4.06816 5 3.8138 5.10536 3.62627 5.29289C3.43873 5.48043 3.33337 5.73478 3.33337 6V18.3333M36.6667 18.3333H3.33337M36.6667 18.3333L35.35 22.64C35.1416 23.3227 34.7195 23.9205 34.1458 24.3454C33.5721 24.7702 32.8772 24.9997 32.1634 25H30M3.33337 18.3333L4.65004 22.64C4.85849 23.3227 5.28061 23.9205 5.85428 24.3454C6.42795 24.7702 7.12285 24.9997 7.83671 25H10M30 11.6667H31.6667M15.8334 24.1667C15.8334 24.1667 15.8334 35.8333 10 35.8333M24.1667 24.1667C24.1667 24.1667 24.1667 35.8333 30 35.8333M20 24.1667V35.8333" stroke="#C9E7FA" stroke-width="1.5" stroke-linecap="round" stroke-linejoin="round"/>
</svg>
