<svg width="48" height="47" viewBox="0 0 48 47" fill="none" xmlns="http://www.w3.org/2000/svg">
<g clip-path="url(#clip0_210_433)">
<path d="M20.571 3.22345C21.332 3.11035 22.1071 3.30038 22.7296 3.7527C23.352 4.20501 23.7722 4.8835 23.8996 5.64231C24.0271 6.40111 23.8518 7.17965 23.4114 7.81055C22.9709 8.44146 22.3005 8.87436 21.5443 9.0162C18.1233 9.59714 15.0184 11.3702 12.7796 14.0212C10.5408 16.6722 9.31255 20.0301 9.3125 23.5C9.3125 27.3954 10.8599 31.1312 13.6144 33.8857C16.3688 36.6401 20.1046 38.1875 24 38.1875V44.0625C12.6436 44.0625 3.4375 34.8584 3.4375 23.5C3.4375 13.4244 10.7342 4.87628 20.571 3.22345Z" fill="url(#paint0_linear_210_433)"/>
<path d="M33.5802 8.41687C33.8378 8.12949 34.1495 7.89568 34.4975 7.72881C34.8455 7.56195 35.223 7.46529 35.6084 7.44438C35.9937 7.42347 36.3795 7.4787 36.7435 7.60692C37.1075 7.73514 37.4427 7.93384 37.7299 8.19167C39.8825 10.1183 41.6039 12.4779 42.7813 15.116C43.9588 17.7541 44.5657 20.6111 44.5625 23.5C44.5625 34.8583 35.3564 44.0625 24 44.0625V38.1875C26.9731 38.1875 29.8761 37.2853 32.3255 35.6001C34.7748 33.9149 36.655 31.526 37.7176 28.7493C38.7802 25.9727 38.9751 22.9389 38.2766 20.049C37.578 17.1592 36.0189 14.5494 33.8054 12.5646C33.2256 12.0444 32.8761 11.3152 32.8339 10.5374C32.7916 9.75955 33.0601 8.9968 33.5802 8.41687Z" fill="url(#paint1_linear_210_433)"/>
<path d="M33.5802 8.41687C33.8378 8.12949 34.1495 7.89568 34.4975 7.72881C34.8455 7.56195 35.223 7.46529 35.6084 7.44438C35.9937 7.42347 36.3795 7.4787 36.7435 7.60692C37.1075 7.73514 37.4427 7.93384 37.7299 8.19167C39.8825 10.1183 41.6039 12.4779 42.7813 15.116C43.9588 17.7541 44.5657 20.6111 44.5625 23.5C44.5625 34.8583 35.3564 44.0625 24 44.0625V38.1875C26.9731 38.1875 29.8761 37.2853 32.3255 35.6001C34.7748 33.9149 36.655 31.526 37.7176 28.7493C38.7802 25.9727 38.9751 22.9389 38.2766 20.049C37.578 17.1592 36.0189 14.5494 33.8054 12.5646C33.2256 12.0444 32.8761 11.3152 32.8339 10.5374C32.7916 9.75955 33.0601 8.9968 33.5802 8.41687Z" fill="url(#paint2_linear_210_433)"/>
</g>
<defs>
<linearGradient id="paint0_linear_210_433" x1="1031.56" y1="218.623" x2="1031.56" y2="3754.86" gradientUnits="userSpaceOnUse">
<stop stop-color="#D98341"/>
<stop offset="1" stop-opacity="0.55"/>
</linearGradient>
<linearGradient id="paint1_linear_210_433" x1="1052.13" y1="565.565" x2="1052.13" y2="3199.08" gradientUnits="userSpaceOnUse">
<stop stop-opacity="0"/>
<stop offset="1" stop-color="#D98341"/>
</linearGradient>
<linearGradient id="paint2_linear_210_433" x1="34.2813" y1="7.44006" x2="42.6042" y2="14.6872" gradientUnits="userSpaceOnUse">
<stop stop-color="white" stop-opacity="0"/>
<stop offset="1" stop-color="#D98341"/>
</linearGradient>
<clipPath id="clip0_210_433">
<rect width="47" height="47" fill="white" transform="translate(0.5)"/>
</clipPath>
</defs>
</svg>
