<svg width="41" height="40" viewBox="0 0 41 40" fill="none" xmlns="http://www.w3.org/2000/svg">
<path d="M16.2328 11.0369H16.7328V10.5369V9.4609H18.9336V18.9745H16.7328V17.8969V17.3969H16.2328H7.16645C5.07974 17.3969 3.40005 15.7316 3.40005 13.6913V4.7553V4.2553H2.90005H1.80005V2.1001H11.4672V4.2553H10.368H9.86805V4.7553V10.5369V11.0369H10.368H16.2328ZM37.5984 23.6793V24.1793H38.0984H39.2001V26.3345H29.5352V24.1793H30.6328H31.1328V23.6793V17.8977V17.3977H30.6328H24.7672H24.2672V17.8977V18.9761H22.0665V9.4617H24.2672V10.5377V11.0377H24.7672H33.8352C35.9192 11.0377 37.5984 12.7035 37.5984 14.7433V23.6793ZM34.3633 30.3949C34.3739 30.412 34.3846 30.4294 34.3955 30.4471C34.6657 30.8857 35.0253 31.4859 35.3842 32.1341C35.7441 32.7839 36.0986 33.4738 36.3619 34.0935C36.6344 34.735 36.7769 35.2295 36.7769 35.5169C36.7769 36.8248 35.6951 37.9001 34.3448 37.9001C32.9937 37.9001 31.912 36.8247 31.912 35.5169C31.912 35.2311 32.0561 34.7377 32.3328 34.096C32.6 33.4765 32.9599 32.7867 33.3251 32.1369C33.6895 31.4887 34.0545 30.8886 34.3288 30.45C34.3404 30.4313 34.3519 30.4129 34.3633 30.3949Z" stroke="#C9E7FA"/>
</svg>
