<svg width="40" height="40" viewBox="0 0 40 40" fill="none" xmlns="http://www.w3.org/2000/svg">
<path d="M28.3 11.1998V11.6998H28.8H32.7881C32.7926 11.7021 32.8005 11.7066 32.8117 11.7151C32.8471 11.7416 32.895 11.7918 32.9444 11.8693C33.0494 12.0339 33.1 12.2217 33.1 12.319V16.1598C33.1 17.1739 32.657 18.2763 31.92 19.5195C31.3589 20.4659 30.6574 21.4471 29.9071 22.4966C29.6723 22.8249 29.4328 23.1599 29.1913 23.5026C27.1938 26.3375 25.1 29.6423 25.1 33.5166V35.4998H22.4H21.9V35.9998V38.6998H16.5V35.9998V35.4998H16H13.3V33.5166C13.3 29.6422 11.2063 26.3377 9.20877 23.5029C8.96737 23.1603 8.72795 22.8254 8.49329 22.4972C7.74289 21.4477 7.04131 20.4664 6.48014 19.5199C5.7431 18.2767 5.30005 17.1741 5.30005 16.1598V12.319C5.30005 12.2217 5.35069 12.0339 5.45567 11.8693C5.50512 11.7918 5.55296 11.7416 5.5884 11.7151C5.59963 11.7066 5.60745 11.7021 5.61201 11.6998H9.60005H10.1V11.1998V2.335C10.1 1.78207 10.5721 1.2998 11.1992 1.2998C11.8277 1.2998 12.3 1.78255 12.3 2.335V11.1998V11.6998H12.8H25.6H26.1V11.1998V2.335C26.1 1.78239 26.5726 1.2998 27.2 1.2998C27.8275 1.2998 28.3 1.78239 28.3 2.335V11.1998ZM14.9808 24.4998H17.7649L16.4106 30.0633C16.4105 30.0635 16.4105 30.0637 16.4104 30.064C16.3881 30.1547 16.3718 30.2633 16.3835 30.3761C16.394 30.4768 16.4391 30.6782 16.6346 30.8093C16.8499 30.9537 17.0732 30.9006 17.1897 30.8461C17.3054 30.792 17.3892 30.71 17.445 30.6431L17.446 30.6418C17.511 30.5634 19.1531 28.4351 20.7644 26.3457C21.5733 25.2968 22.3786 24.2522 22.9817 23.4699L23.7099 22.5253L23.9136 22.2609L23.9673 22.1913L23.981 22.1735L23.9833 22.1705C24.0941 22.0303 24.2296 21.7563 24.085 21.4597C23.9396 21.1615 23.6369 21.0998 23.4601 21.0998H20.7067L20.8391 20.5625L21.3145 18.6327C21.6614 17.2239 22.0174 15.7763 22.0435 15.6625L22.0454 15.6538L22.0471 15.6451C22.0643 15.5553 22.0717 15.443 22.0425 15.3257C22.0145 15.2127 21.9339 15.0352 21.7332 14.9411C21.5217 14.8419 21.322 14.9023 21.2054 14.9715C21.1052 15.031 21.0344 15.1113 20.9856 15.1825C20.8134 15.4003 19.2416 17.3946 17.6865 19.3679L15.4715 22.1788L14.7443 23.1016L14.5409 23.3598L14.4873 23.4278L14.474 23.4446C14.3794 23.5584 14.2027 23.8366 14.361 24.1541C14.5168 24.4664 14.8451 24.4998 14.9808 24.4998ZM17.3786 30.3167C17.3786 30.3168 17.3786 30.3162 17.3789 30.3148L17.3786 30.3167ZM23.2491 21.5998H23.2492L23.1939 21.5572C23.1938 21.5572 23.1938 21.5572 23.1938 21.5573C23.1951 21.5582 23.2028 21.5641 23.2491 21.5998ZM20.3504 21.3647L20.1392 21.3126L20.3504 21.3647L20.6173 21.4304C20.6172 21.4304 20.6172 21.4304 20.6172 21.4305L20.3504 21.3647ZM15.1652 23.9998H15.1652L15.2531 24.0691C15.2531 24.0691 15.2532 24.069 15.2532 24.069C15.2492 24.0659 15.2328 24.053 15.1652 23.9998Z" stroke="#C9E7FA"/>
</svg>
