<svg width="40" height="40" viewBox="0 0 40 40" fill="none" xmlns="http://www.w3.org/2000/svg">
<path d="M12.222 29.7455L11.9717 29.3227L11.5446 29.5655L8.01726 31.5705L6.84947 29.5561L10.71 27.3072L11.0417 27.114L10.9407 26.7436C10.8616 26.4536 10.7956 26.1562 10.7426 25.8513C10.6868 25.53 10.631 25.2163 10.5752 24.9104L10.5003 24.5002H10.0833H5.5V22.1668H10.0833H10.5069L10.5765 21.749C10.6319 21.4168 10.6873 21.0912 10.7426 20.7724C10.7955 20.4676 10.8616 20.1709 10.9406 19.8822L11.042 19.5115L10.71 19.3181L6.84947 17.0693L8.01413 15.0602L11.4975 17.0984L11.9335 17.3535L12.1841 16.9149C12.3939 16.5478 12.6377 16.1852 12.9163 15.8272C13.1971 15.4663 13.4818 15.1421 13.7702 14.8537L13.9783 14.6457L13.8974 14.3628C13.8541 14.2112 13.8333 14.063 13.8333 13.9168V13.3335C13.8333 12.7162 13.9232 12.1286 14.1015 11.5684C14.2833 10.9968 14.5294 10.4663 14.8394 9.97549L15.0528 9.63756L14.7702 9.35494L12.3707 6.95538L14.0082 5.28857L16.5683 7.77547L16.8292 8.0289L17.1506 7.85872C17.5864 7.62802 18.0406 7.4557 18.5142 7.34115C18.9886 7.2264 19.4837 7.1679 20.0005 7.16683C20.5137 7.16687 21.0124 7.23098 21.4978 7.3587C21.9893 7.48805 22.4534 7.66869 22.8911 7.90039L23.2174 8.07317L23.4786 7.81205L25.9969 5.29375L27.6293 6.95538L25.2298 9.35494L24.9472 9.63756L25.1606 9.97549C25.4689 10.4636 25.7073 10.9909 25.8756 11.5589C26.0424 12.1215 26.126 12.7121 26.125 13.3327V13.3335V13.8968C26.125 14.025 26.1052 14.1659 26.0609 14.3211L25.9801 14.604L26.1881 14.812C26.4749 15.0988 26.7578 15.4277 27.0364 15.7998C27.3164 16.1738 27.5623 16.5459 27.7747 16.9158L28.0226 17.3475L28.4554 17.1015L31.9827 15.0965L33.1476 17.106L29.2533 19.3153L28.9154 19.507L29.0176 19.8817C29.0985 20.1783 29.1725 20.4823 29.2395 20.7937C29.3069 21.1065 29.3683 21.4256 29.4238 21.7509L29.4947 22.1668H29.9167H34.5V24.5002H29.9167H29.4931L29.4235 24.918C29.3681 25.2502 29.3127 25.5758 29.2574 25.8946C29.2045 26.1994 29.1384 26.4961 29.0594 26.7848L28.958 27.1555L29.29 27.3489L33.1505 29.5977L31.9847 31.6087L28.4589 29.5674L28.0305 29.3195L27.7782 29.7453C26.9267 31.1821 25.8332 32.3334 24.4966 33.2066C23.1795 34.0669 21.6857 34.5002 20 34.5002C18.3132 34.5002 16.8188 34.0668 15.5018 33.2066C14.1652 32.3335 13.0723 31.1823 12.222 29.7455ZM16.3612 12.0856L15.9952 13.136L17.0237 12.7125C17.4607 12.5325 17.9336 12.3959 18.4437 12.3039C18.9562 12.2115 19.4745 12.1658 19.999 12.1668H20C20.5305 12.1668 21.0387 12.2066 21.525 12.2854C22.0023 12.3627 22.4579 12.4913 22.8926 12.6707L23.9211 13.0952L23.5556 12.0442C23.2998 11.3088 22.8496 10.6998 22.2167 10.2252C21.5709 9.74086 20.8258 9.50016 20 9.50016C19.1703 9.50016 18.4135 9.75033 17.7445 10.2447C17.0865 10.731 16.619 11.3457 16.3612 12.0856ZM20 32.1668C22.1944 32.1668 23.9622 31.2374 25.262 29.4156L26.6667 23.3335H27.1667C27.1667 23.3334 27.1667 23.3333 27.1667 23.3332C27.1666 21.2868 26.5734 19.3213 25.4044 17.4442C24.1852 15.4864 22.3615 14.5002 20 14.5002C17.6665 14.5002 15.8525 15.4802 14.6197 17.4203C13.4339 19.2863 12.8333 21.26 12.8333 23.3335C12.8333 25.5997 13.4677 27.6327 14.7396 29.4156C16.0394 31.2373 17.8066 32.1668 20 32.1668ZM18.8333 27.8335V18.8335H21.1667V27.8335H18.8333Z" stroke="#C9E7FA"/>
</svg>
