<svg width="120" height="120" viewBox="0 0 120 120" fill="none" xmlns="http://www.w3.org/2000/svg">
<path d="M60 27.5C64.6413 27.5 69.0925 29.3437 72.3744 32.6256C75.6563 35.9075 77.5 40.3587 77.5 45C77.5 49.6413 75.6563 54.0925 72.3744 57.3744C69.0925 60.6563 64.6413 62.5 60 62.5C55.3587 62.5 50.9075 60.6563 47.6256 57.3744C44.3437 54.0925 42.5 49.6413 42.5 45C42.5 40.3587 44.3437 35.9075 47.6256 32.6256C50.9075 29.3437 55.3587 27.5 60 27.5ZM25 40C27.8 40 30.4 40.75 32.65 42.1C31.9 49.25 34 56.35 38.3 61.9C35.8 66.7 30.8 70 25 70C21.0218 70 17.2064 68.4197 14.3934 65.6066C11.5804 62.7936 10 58.9782 10 55C10 51.0218 11.5804 47.2064 14.3934 44.3934C17.2064 41.5804 21.0218 40 25 40ZM95 40C98.9782 40 102.794 41.5804 105.607 44.3934C108.42 47.2064 110 51.0218 110 55C110 58.9782 108.42 62.7936 105.607 65.6066C102.794 68.4197 98.9782 70 95 70C89.2 70 84.2 66.7 81.7 61.9C86.0594 56.2721 88.0828 49.181 87.35 42.1C89.6 40.75 92.2 40 95 40ZM27.5 91.25C27.5 80.9 42.05 72.5 60 72.5C77.95 72.5 92.5 80.9 92.5 91.25V100H27.5V91.25ZM0 100V92.5C0 85.55 9.45 79.7 22.25 78C19.3 81.4 17.5 86.1 17.5 91.25V100H0ZM120 100H102.5V91.25C102.5 86.1 100.7 81.4 97.75 78C110.55 79.7 120 85.55 120 92.5V100Z" fill="#C9E7FA"/>
</svg>
