<svg width="120" height="120" viewBox="0 0 120 120" fill="none" xmlns="http://www.w3.org/2000/svg">
<path d="M60 5L15 25V55C15 82.75 34.2 108.7 60 115C85.8 108.7 105 82.75 105 55V25L60 5ZM60 25C63.9782 25 67.7936 26.5804 70.6066 29.3934C73.4197 32.2064 75 36.0218 75 40C75 43.9782 73.4197 47.7936 70.6066 50.6066C67.7936 53.4197 63.9782 55 60 55C56.0218 55 52.2064 53.4197 49.3934 50.6066C46.5804 47.7936 45 43.9782 45 40C45 36.0218 46.5804 32.2064 49.3934 29.3934C52.2064 26.5804 56.0218 25 60 25ZM85.65 85C79.5919 94.2733 70.5391 101.191 60 104.6C49.4609 101.191 40.4081 94.2733 34.35 85C32.65 82.5 31.2 80 30 77.35C30 69.1 43.55 62.35 60 62.35C76.45 62.35 90 68.95 90 77.35C88.8 80 87.35 82.5 85.65 85Z" fill="#C9E7FA"/>
</svg>
