<svg width="40" height="40" viewBox="0 0 40 40" fill="none" xmlns="http://www.w3.org/2000/svg">
<path d="M36.2926 14.8335L31.9321 19.1941C31.9317 19.1945 31.9313 19.1949 31.9309 19.1952C30.8259 20.2848 29.0241 20.2848 27.9191 19.1952C27.9187 19.1949 27.9183 19.1945 27.9179 19.1941L25.6035 16.8797L25.25 16.5262L24.8964 16.8797L17.3298 24.4464L16.9762 24.7999L17.3298 25.1535L21.6429 29.4666L19.6497 31.4599C19.6491 31.4604 19.6486 31.4609 19.6481 31.4614C15.5772 35.4583 12.1928 35.971 9.87744 35.5678C8.7041 35.3634 7.77425 34.9187 7.1381 34.525C6.82041 34.3284 6.57767 34.1456 6.41647 34.014C6.33593 33.9482 6.27595 33.8954 6.23736 33.8603C6.21808 33.8427 6.20415 33.8296 6.1957 33.8216L6.18713 33.8133L6.18688 33.813L6.18645 33.8126L6.18615 33.8123L6.18596 33.8121L6.18475 33.8109L6.18457 33.8108L6.18428 33.8105L6.18385 33.8101L6.18355 33.8097L6.1751 33.8011C6.16684 33.7926 6.15347 33.7787 6.13558 33.7594C6.09978 33.7207 6.04598 33.6607 5.97898 33.58C5.84485 33.4187 5.65853 33.1758 5.45796 32.8581C5.0563 32.2217 4.60198 31.292 4.38992 30.1193C3.97171 27.8066 4.47448 24.4243 8.50318 20.3539L10.5135 18.3718L14.8625 22.7362L15.216 23.091L15.5702 22.7368L23.1535 15.1535L23.5071 14.7999L23.1535 14.4464L20.8058 12.0987C20.8055 12.0983 20.8051 12.098 20.8048 12.0976C19.7151 10.9926 19.7151 9.19065 20.8047 8.08564C20.8051 8.08527 20.8054 8.0849 20.8058 8.08453L25.1669 3.72346L36.2926 14.8335ZM29.5298 17.4868L29.8808 17.8379L30.2344 17.4893L32.601 15.156L32.9596 14.8025L32.6035 14.4464L25.5535 7.39638L25.2 7.04283L24.8464 7.39638L22.4964 9.74638L22.1429 10.0999L22.4964 10.4535L24.8298 12.7868L27.2298 15.1868L29.5298 17.4868Z" stroke="#C9E7FA"/>
</svg>
