<svg width="40" height="40" viewBox="0 0 40 40" fill="none" xmlns="http://www.w3.org/2000/svg">
<g clip-path="url(#clip0_27_58)">
<path d="M21.1811 38.1321L20.9081 38.2701L20.9078 38.2701L20.8878 38.2735L20.8174 38.2852C20.7909 38.2774 20.7635 38.2717 20.7357 38.268L20.4619 38.1311L20.4536 38.1269L20.445 38.1231C20.3388 38.0748 20.2197 38.0624 20.1057 38.0877C19.9917 38.1131 19.8891 38.1748 19.8132 38.2635L19.7638 38.3214L19.7338 38.3913L19.7238 38.4147L19.689 38.4958L19.6841 38.584L19.6334 39.5H0.5V0.5H39.5V39.5H22.0133L21.9626 38.584L21.9599 38.5365L21.9484 38.4904C21.912 38.3448 21.7896 38.137 21.5281 38.0847L21.4441 38.0679L21.3594 38.08L21.336 38.0833L21.2546 38.095L21.1811 38.1321Z" stroke="#C9E7FA"/>
<path d="M5.31803 33.7536L5.31824 33.7537C6.17368 34.4411 7.3289 34.915 8.6064 35.2535C11.1715 35.933 14.6282 36.1668 18.3334 36.1668C18.7138 36.1668 19.0931 36.1635 19.4683 36.1585C19.7777 36.1544 20.0728 36.0274 20.2887 35.8057C20.5045 35.5839 20.6234 35.2855 20.6193 34.9761C20.6151 34.6666 20.4881 34.3715 20.2664 34.1557C20.0447 33.9399 19.7463 33.821 19.437 33.8251C19.0737 33.8301 18.7063 33.8335 18.3334 33.8335C14.6755 33.8335 11.4653 33.5974 9.20338 32.9967C8.06927 32.6969 7.27138 32.3291 6.7786 31.9333C6.56332 31.7605 6.40323 31.5835 6.30046 31.3882C6.19273 31.1834 6.16671 30.9941 6.16671 30.8335C6.16671 30.3839 6.38324 29.7608 6.96222 29.0258C7.53217 28.3021 8.39644 27.5516 9.51293 26.8717C11.7452 25.5095 14.8685 24.5002 18.3334 24.5002C18.9759 24.5002 19.6104 24.5344 20.2284 24.6014C20.5359 24.6338 20.8438 24.5429 21.0843 24.3485C21.325 24.154 21.4785 23.8718 21.5112 23.5641C21.5438 23.2564 21.4529 22.9483 21.2584 22.7076C21.0638 22.4669 20.7817 22.3134 20.474 22.2807L20.4734 22.2806C19.7761 22.2059 19.0605 22.1668 18.3334 22.1668C14.4352 22.1668 10.8919 23.2973 8.29748 24.8784C7.00062 25.6718 5.91126 26.5931 5.13258 27.5782L5.31803 33.7536ZM5.31803 33.7536C4.42234 33.0346 3.83337 32.0602 3.83337 30.8335M5.31803 33.7536L3.83337 30.8335M3.83337 30.8335C3.83337 29.6742 4.36255 28.5543 5.13231 27.5785L3.83337 30.8335ZM29.7767 36.6518C29.9267 36.6685 30.075 36.6685 30.2234 36.6518L23.3334 29.4518C23.3331 31.2345 23.9903 32.9547 25.1791 34.2831C26.368 35.6116 28.0049 36.4549 29.7767 36.6518ZM24.6314 25.5595L24.6315 25.5595L29.6314 23.8929C29.6314 23.8929 29.6314 23.8929 29.6315 23.8928C29.8707 23.8132 30.1293 23.8132 30.3686 23.8928C30.3686 23.8929 30.3687 23.8929 30.3687 23.8929L35.3686 25.5595L35.3687 25.5595C35.6011 25.6369 35.8033 25.7855 35.9465 25.9843C36.0897 26.183 36.1668 26.4217 36.1667 26.6667V26.6668V29.4518V29.4519C36.1669 31.1115 35.5551 32.713 34.4484 33.9497C33.3416 35.1864 31.8176 35.9716 30.1682 36.1549L30.1675 36.155C30.0565 36.1674 29.9454 36.1675 29.8319 36.1549C28.1824 35.9716 26.6585 35.1864 25.5517 33.9497C24.445 32.713 23.8331 31.1115 23.8334 29.4519V29.4518V26.6668V26.6667C23.8333 26.4217 23.9104 26.183 24.0536 25.9843C24.1968 25.7855 24.399 25.6369 24.6314 25.5595ZM26.5085 27.3942L26.1667 27.5082V27.8685V29.4518V29.4535V29.4536C26.1669 30.5104 26.5465 31.532 27.2365 32.3324C27.9265 33.1328 28.8811 33.6588 29.9263 33.8147L30.0001 33.8257L30.0739 33.8147C32.226 33.4933 33.8334 31.6456 33.8334 29.4518V27.8685V27.5082L33.4916 27.3942L30.1582 26.2825L30 26.2298L29.8419 26.2825L26.5085 27.3942ZM18.3334 6.16683C17.6111 6.16683 16.8959 6.30909 16.2286 6.58549C15.5613 6.86189 14.955 7.26702 14.4443 7.77774C13.9336 8.28846 13.5284 8.89478 13.252 9.56207C12.9756 10.2294 12.8334 10.9446 12.8334 11.6668C12.8334 12.3891 12.9756 13.1043 13.252 13.7716C13.5284 14.4389 13.9336 15.0452 14.4443 15.5559C14.955 16.0666 15.5613 16.4718 16.2286 16.7482C16.8959 17.0246 17.6111 17.1668 18.3334 17.1668C19.7921 17.1668 21.191 16.5874 22.2225 15.5559C23.2539 14.5245 23.8334 13.1255 23.8334 11.6668C23.8334 10.2081 23.2539 8.80919 22.2225 7.77774C21.191 6.74629 19.7921 6.16683 18.3334 6.16683ZM10.5 11.6668C10.5 9.5893 11.3253 7.59686 12.7944 6.12783C14.2634 4.65879 16.2558 3.8335 18.3334 3.8335C20.4109 3.8335 22.4033 4.65879 23.8724 6.12783C25.3414 7.59686 26.1667 9.5893 26.1667 11.6668C26.1667 13.7444 25.3414 15.7368 23.8724 17.2058C22.4033 18.6749 20.4109 19.5002 18.3334 19.5002C16.2558 19.5002 14.2634 18.6749 12.7944 17.2058C11.3253 15.7368 10.5 13.7444 10.5 11.6668Z" stroke="#C9E7FA"/>
</g>
<defs>
<clipPath id="clip0_27_58">
<rect width="40" height="40" fill="white"/>
</clipPath>
</defs>
</svg>
