<svg width="41" height="40" viewBox="0 0 41 40" fill="none" xmlns="http://www.w3.org/2000/svg">
<path d="M37.6429 7.14307H3.35716C2.56818 7.14307 1.92859 7.78266 1.92859 8.57164V31.4288C1.92859 32.2178 2.56818 32.8574 3.35716 32.8574H37.6429C38.4319 32.8574 39.0714 32.2178 39.0714 31.4288V8.57164C39.0714 7.78266 38.4319 7.14307 37.6429 7.14307Z" stroke="#C9E7FA" stroke-linecap="round" stroke-linejoin="round"/>
<path d="M24.7857 12.8574H9.07139C8.28242 12.8574 7.64282 13.497 7.64282 14.286V25.7146C7.64282 26.5035 8.28242 27.1431 9.07139 27.1431H24.7857C25.5747 27.1431 26.2143 26.5035 26.2143 25.7146V14.286C26.2143 13.497 25.5747 12.8574 24.7857 12.8574Z" stroke="#C9E7FA" stroke-linecap="round" stroke-linejoin="round"/>
<path d="M31.9286 14.2861H33.3572M31.9286 18.5718H33.3572" stroke="#C9E7FA" stroke-linecap="round" stroke-linejoin="round"/>
</svg>
