<svg version="1.1" xmlns="http://www.w3.org/2000/svg" xmlns:xlink="http://www.w3.org/1999/xlink" width="16" height="16" viewBox="0,0,256,256"><g fill="#ce1212" fill-rule="nonzero" stroke="none" stroke-width="1" stroke-linecap="butt" stroke-linejoin="miter" stroke-miterlimit="10" stroke-dasharray="" stroke-dashoffset="0" font-family="none" font-weight="none" font-size="none" text-anchor="none" style="mix-blend-mode: normal"><g transform="scale(16,16)"><path d="M4,11c0,-0.55228 0.44772,-1 1,-1c0.55228,0 1,0.44772 1,1v1c0,0.55228 -0.44772,1 -1,1c-0.55228,0 -1,-0.44772 -1,-1zM10,7c0,-0.55228 0.44772,-1 1,-1c0.55228,0 1,0.44772 1,1v5c0,0.55228 -0.44772,1 -1,1c-0.55228,0 -1,-0.44772 -1,-1zM7,9c0,-0.55228 0.44772,-1 1,-1c0.55228,0 1,0.44772 1,1v3c0,0.55228 -0.44772,1 -1,1c-0.55228,0 -1,-0.44772 -1,-1z"></path><path d="M4,1.5h-1c-1.10457,0 -2,0.89543 -2,2v10.5c0,1.10457 0.89543,2 2,2h10c1.10457,0 2,-0.89543 2,-2v-10.5c0,-1.10457 -0.89543,-2 -2,-2h-1v1h1c0.55228,0 1,0.44772 1,1v10.5c0,0.55228 -0.44772,1 -1,1h-10c-0.55228,0 -1,-0.44772 -1,-1v-10.5c0,-0.55228 0.44772,-1 1,-1h1z"></path><path d="M9.5,1c0.27614,0 0.5,0.22386 0.5,0.5v1c0,0.27614 -0.22386,0.5 -0.5,0.5h-3c-0.27614,0 -0.5,-0.22386 -0.5,-0.5v-1c0,-0.27614 0.22386,-0.5 0.5,-0.5zM6.5,0c-0.82843,0 -1.5,0.67157 -1.5,1.5v1c0,0.82843 0.67157,1.5 1.5,1.5h3c0.82843,0 1.5,-0.67157 1.5,-1.5v-1c0,-0.82843 -0.67157,-1.5 -1.5,-1.5z"></path></g></g></svg>