<svg version="1.1" xmlns="http://www.w3.org/2000/svg" xmlns:xlink="http://www.w3.org/1999/xlink" width="16" height="16" viewBox="0,0,256,256"><g fill="#ce1212" fill-rule="nonzero" stroke="none" stroke-width="1" stroke-linecap="butt" stroke-linejoin="miter" stroke-miterlimit="10" stroke-dasharray="" stroke-dashoffset="0" font-family="none" font-weight="none" font-size="none" text-anchor="none" style="mix-blend-mode: normal"><g transform="translate(0.06627,0) scale(16,16)"><path d="M3.1,0.7c0.09443,-0.1259 0.24262,-0.2 0.4,-0.2h9c0.15738,0 0.30557,0.0741 0.4,0.2l2.976,3.974c0.149,0.185 0.156,0.45 0.01,0.644l-7.486,9.982c-0.09443,0.1259 -0.24262,0.2 -0.4,0.2c-0.15738,0 -0.30557,-0.0741 -0.4,-0.2l-7.5,-10c-0.13333,-0.17778 -0.13333,-0.42222 0,-0.6zM14.486,4.485l-1.806,-2.41l-0.776,2.413zM10.853,4.489l0.961,-2.989h-7.628l0.963,2.995zM5.47,5.495l2.53,7.871l2.532,-7.876zM4.099,4.496l-0.78,-2.422l-1.818,2.425zM1.499,5.5l5.113,6.817l-2.192,-6.82l-2.92,0.003zM9.388,12.317l5.123,-6.83l-2.928,0.002z"></path></g></g></svg>