<svg version="1.1" xmlns="http://www.w3.org/2000/svg" xmlns:xlink="http://www.w3.org/1999/xlink" width="16" height="16" viewBox="0,0,256,256"><g fill="#ce1212" fill-rule="nonzero" stroke="none" stroke-width="1" stroke-linecap="butt" stroke-linejoin="miter" stroke-miterlimit="10" stroke-dasharray="" stroke-dashoffset="0" font-family="none" font-weight="none" font-size="none" text-anchor="none" style="mix-blend-mode: normal"><g transform="translate(-0.00007,0) scale(16,16)"><path d="M4.98,1c-0.1518,0.00022 -0.29528,0.06938 -0.39,0.188l-3.05,3.812h4.46c0.27614,0 0.5,0.22386 0.5,0.5c0,0.82843 0.67157,1.5 1.5,1.5c0.82843,0 1.5,-0.67157 1.5,-1.5c0,-0.27614 0.22386,-0.5 0.5,-0.5h4.46l-3.05,-3.812c-0.09472,-0.11862 -0.2382,-0.18778 -0.39,-0.188zM14.934,6h-4.484c-0.2366,1.16516 -1.26106,2.00251 -2.45,2.00251c-1.18894,0 -2.2134,-0.83734 -2.45,-2.00251h-4.484l0.32,2.562c0.03136,0.25093 0.24512,0.43894 0.498,0.438h12.234c0.25211,-0.00007 0.46474,-0.18783 0.496,-0.438l0.319,-2.562zM3.809,0.563c0.2848,-0.35603 0.71607,-0.5632 1.172,-0.563h6.038c0.45593,-0.0002 0.8872,0.20697 1.172,0.563l3.7,4.625c0.08398,0.10542 0.12184,0.24028 0.105,0.374l-0.39,3.124c-0.09383,0.75088 -0.73228,1.31429 -1.489,1.314h-12.234c-0.75672,0.00029 -1.39517,-0.56312 -1.489,-1.314l-0.39,-3.124c-0.01656,-0.13386 0.02167,-0.26873 0.106,-0.374l3.7,-4.625zM0.125,11.17c0.09478,-0.10789 0.23139,-0.16982 0.375,-0.17h5.5c0.27614,0 0.5,0.22386 0.5,0.5c0,0.82843 0.67157,1.5 1.5,1.5c0.82843,0 1.5,-0.67157 1.5,-1.5c0,-0.27614 0.22386,-0.5 0.5,-0.5h5.5c0.14339,0.00004 0.27986,0.06164 0.37474,0.16915c0.09488,0.10751 0.13904,0.25057 0.12126,0.39285l-0.39,3.124c-0.09383,0.75088 -0.73228,1.31429 -1.489,1.314h-12.234c-0.75672,0.00029 -1.39517,-0.56312 -1.489,-1.314l-0.39,-3.124c-0.01789,-0.14229 0.02617,-0.28541 0.121,-0.393zM1.066,12l0.32,2.562c0.03131,0.25055 0.2445,0.43843 0.497,0.438h12.234c0.25211,-0.00007 0.46474,-0.18783 0.496,-0.438l0.32,-2.562h-4.483c-0.2366,1.16516 -1.26106,2.00251 -2.45,2.00251c-1.18894,0 -2.2134,-0.83734 -2.45,-2.00251z"></path></g></g></svg>